<?xml version="1.0" standalone="no"?>
<!DOCTYPE svg PUBLIC "-//W3C//DTD SVG 20010904//EN"
 "http://www.w3.org/TR/2001/REC-SVG-20010904/DTD/svg10.dtd">
<svg version="1.0" xmlns="http://www.w3.org/2000/svg"
 width="500.000000pt" height="500.000000pt" viewBox="0 0 500.000000 500.000000"
 preserveAspectRatio="xMidYMid meet">

<g transform="translate(0.000000,500.000000) scale(0.100000,-0.100000)"
fill="#000000" stroke="none">
<path d="M2191 3643 c-70 -13 -106 -70 -97 -150 6 -49 3 -60 -48 -165 -66
-139 -156 -376 -230 -609 -78 -246 -76 -314 12 -339 112 -31 203 -5 353 99
129 90 493 321 506 321 11 0 119 -217 127 -257 16 -71 -17 -92 -111 -73 -35 8
-56 18 -59 28 -25 80 -71 122 -134 122 -68 0 -130 -63 -130 -132 0 -60 69
-128 130 -128 14 0 43 9 64 20 34 17 45 18 83 9 23 -6 73 -9 109 -7 60 4 70 7
95 36 61 68 50 144 -52 353 -62 125 -105 218 -252 539 l-29 65 -13 -35 c-8
-19 -14 -44 -14 -55 -1 -12 31 -99 69 -195 39 -96 70 -179 70 -185 0 -19 -567
-385 -637 -411 -85 -32 -137 -30 -141 6 -3 26 211 649 275 803 l37 87 41 0
c110 0 170 119 103 205 -20 25 -76 57 -95 54 -4 -1 -19 -4 -32 -6z m61 -90
c26 -23 23 -59 -6 -78 -46 -31 -102 25 -71 71 18 28 51 31 77 7z m296 -1025
c7 -7 12 -24 12 -38 0 -14 -5 -31 -12 -38 -7 -7 -24 -12 -38 -12 -14 0 -31 5
-38 12 -7 7 -12 24 -12 38 0 14 5 31 12 38 7 7 24 12 38 12 14 0 31 -5 38 -12z"/>
<path d="M2385 1806 c-7 -11 -20 -50 -29 -86 -9 -36 -19 -73 -22 -82 -3 -11 0
-18 8 -18 9 0 25 35 43 95 20 64 32 91 40 85 13 -11 40 4 31 18 -11 18 -57 10
-71 -12z"/>
<path d="M2675 1758 c-11 -40 -21 -79 -23 -85 -2 -7 3 -13 11 -13 15 0 39 62
52 133 6 28 4 37 -7 37 -8 0 -21 -27 -33 -72z"/>
<path d="M2267 1803 c-4 -3 -7 -37 -7 -75 0 -63 2 -68 21 -68 19 0 21 4 15 31
-3 17 -6 51 -6 75 0 41 -8 53 -23 37z"/>
<path d="M2465 1798 c-19 -59 -34 -122 -29 -129 3 -5 12 -9 20 -9 8 0 13 4 10
8 -3 5 4 38 14 73 11 35 20 65 20 67 0 9 -31 0 -35 -10z"/>
<path d="M2562 1773 c-17 -7 -42 -57 -42 -88 0 -18 5 -25 19 -25 14 0 17 6 14
24 -6 29 29 101 35 73 2 -10 -1 -32 -7 -49 -12 -33 -7 -48 13 -48 7 0 16 15
20 33 3 17 9 44 12 59 6 24 4 27 -22 26 -16 -1 -35 -3 -42 -5z"/>
<path d="M2730 1742 c0 -21 -7 -48 -16 -60 -19 -28 -1 -29 25 -1 25 27 32 67
14 85 -21 20 -23 18 -23 -24z"/>
<path d="M2175 1670 c-3 -5 -1 -10 4 -10 6 0 11 5 11 10 0 6 -2 10 -4 10 -3 0
-8 -4 -11 -10z"/>
</g>
</svg>
